<?xml version="1.0" encoding="UTF-8" standalone="no"?>
<!-- Generator: Adobe Illustrator 19.1.0, SVG Export Plug-In . SVG Version: 6.00 Build 0)  -->

<svg
   xmlns:dc="http://purl.org/dc/elements/1.1/"
   xmlns:cc="http://creativecommons.org/ns#"
   xmlns:rdf="http://www.w3.org/1999/02/22-rdf-syntax-ns#"
   xmlns:svg="http://www.w3.org/2000/svg"
   xmlns="http://www.w3.org/2000/svg"
   xmlns:sodipodi="http://sodipodi.sourceforge.net/DTD/sodipodi-0.dtd"
   xmlns:inkscape="http://www.inkscape.org/namespaces/inkscape"
   version="1.1"
   id="Layer_1"
   x="0px"
   y="0px"
   viewBox="-140.6 343.2 3000 1098.7054"
   xml:space="preserve"
   inkscape:version="0.91 r13725"
   sodipodi:docname="Out Magazine Logo.svg"
   width="3000"
   height="1098.7054"><metadata
   id="metadata17"><rdf:RDF><cc:Work
       rdf:about=""><dc:format>image/svg+xml</dc:format><dc:type
         rdf:resource="http://purl.org/dc/dcmitype/StillImage" /><dc:title></dc:title></cc:Work></rdf:RDF></metadata><defs
   id="defs15" /><sodipodi:namedview
   pagecolor="#ffffff"
   bordercolor="#666666"
   borderopacity="1"
   objecttolerance="10"
   gridtolerance="10"
   guidetolerance="10"
   inkscape:pageopacity="0"
   inkscape:pageshadow="2"
   inkscape:window-width="1280"
   inkscape:window-height="721"
   id="namedview13"
   showgrid="false"
   fit-margin-left="20"
   fit-margin-top="20"
   fit-margin-right="20"
   fit-margin-bottom="20"
   inkscape:zoom="0.37266667"
   inkscape:cx="1500"
   inkscape:cy="410.55456"
   inkscape:window-x="-4"
   inkscape:window-y="-4"
   inkscape:window-maximized="1"
   inkscape:current-layer="Layer_1" />
<style
   type="text/css"
   id="style3">
	.st0{fill:#FFFFFF;}
</style>
<g
   id="g5"
   style="fill:#000000"
   transform="matrix(9.8666667,0,0,9.8666667,1266.6533,-3023.04)">
	<polygon
   class="st0"
   points="131.2,374.8 131.2,449 99.6,449 99.6,374.8 71.4,374.8 71.4,344.8 159.4,344.8 159.4,374.8 "
   id="polygon7"
   style="fill:#000000" />
	<path
   class="st0"
   d="m -63.4,397.1 c 0,6.6 -2.4,12.4 -6.2,16.6 -3.9,4.1 -9.2,6.7 -16,6.7 -6.7,0 -12.1,-2.7 -16.1,-6.9 -4,-4.2 -6.4,-10.1 -6.4,-16.7 l 0,-0.3 c 0,-6.6 2.4,-12.4 6.2,-16.6 3.9,-4.1 9.2,-6.7 16,-6.7 6.7,0 12.1,2.7 16.1,6.9 4,4.2 6.4,10.1 6.4,16.7 l 0,0.3 z m 32.5,-0.2 0,-0.3 c 0,-14.7 -5.7,-28.1 -15.5,-37.8 -9.7,-9.6 -23.4,-15.6 -39.2,-15.6 -15.8,0 -29.5,6 -39.4,15.8 -9.8,9.7 -15.6,23.2 -15.6,37.9 l 0,0.3 0,0 c 0,14.6 5.7,28.1 15.5,37.7 9.7,9.7 23.5,15.7 39.3,15.6 l 0,0 c 15.7,0 29.5,-6 39.4,-15.8 9.7,-9.6 15.5,-23.2 15.5,-37.8"
   id="path9"
   style="fill:#000000"
   inkscape:connector-curvature="0" />
	<path
   class="st0"
   d="m -13.4,438.4 c -8.2,-8.2 -12.4,-20.3 -12.4,-34.9 l 0,-58.7 31.6,0 0,58.2 c 0,6.7 1.6,10.9 3.9,13.4 2.3,2.5 5.4,3.9 10.5,3.9 5.1,0 8.4,-1.4 10.6,-3.8 2.2,-2.4 3.8,-6.4 3.8,-12.9 l 0,-58.8 31.6,0 0,58.1 c 0,15.1 -4.3,27.2 -12.7,35.5 -8.4,8.2 -20.2,12 -33.5,12 l -0.1,0 c -13.5,0 -25.1,-3.8 -33.3,-12"
   id="path11"
   style="fill:#000000"
   inkscape:connector-curvature="0" />
</g>
</svg>